<svg xmlns="http://www.w3.org/2000/svg" width="21.984" height="22.008" viewBox="0 0 21.984 22.008">
  <path id="search" d="M1185.551,63.5a9.238,9.238,0,0,0-6.375,2.625,9.5,9.5,0,0,0-1.922,2.883,9.027,9.027,0,0,0,0,6.985,9.507,9.507,0,0,0,1.922,2.883,9.193,9.193,0,0,0,2.859,1.922,9.049,9.049,0,0,0,3.516.7,8.769,8.769,0,0,0,3-.516,9.042,9.042,0,0,0,2.6-1.453l5.672,5.672a.991.991,0,0,0,.726.3.918.918,0,0,0,.7-.3,1.02,1.02,0,0,0,0-1.406l-5.672-5.672a8.972,8.972,0,0,0,1.453-2.625,8.785,8.785,0,0,0,.515-3,8.638,8.638,0,0,0-.726-3.492,8.752,8.752,0,0,0-4.781-4.781,8.642,8.642,0,0,0-3.492-.726Zm0,1.992a6.835,6.835,0,0,1,2.719.563A7.014,7.014,0,0,1,1192,69.781a7.125,7.125,0,0,1,0,5.438,7.016,7.016,0,0,1-3.727,3.727,6.841,6.841,0,0,1-2.719.562,6.729,6.729,0,0,1-2.719-.562,7.089,7.089,0,0,1-2.25-1.5,6.84,6.84,0,0,1-1.476-2.226,6.852,6.852,0,0,1,0-5.438,6.85,6.85,0,0,1,1.476-2.226,7.1,7.1,0,0,1,2.25-1.5,6.722,6.722,0,0,1,2.719-.563Z" transform="translate(-1176.551 -63.5)"/>
</svg>
