<svg xmlns="http://www.w3.org/2000/svg" width="45" height="32" viewBox="0 0 45 32">
  <path id="Formaa_1" data-name="Formaa 1" d="M1062.266,2955.3h-15.482a5.562,5.562,0,0,1-10.99,0h-1.938a1.87,1.87,0,0,1-1.857-1.879V2929.88a1.87,1.87,0,0,1,1.857-1.88h25.558a1.87,1.87,0,0,1,1.857,1.88v1.91h7.123a.893.893,0,0,1,.238.031c2.306.2,3.458,1.407,4.679,3.47l3.559,6.105a.948.948,0,0,1,.13.478v12.483a.934.934,0,0,1-.929.94h-2.816a5.561,5.561,0,0,1-10.989,0Zm1.777-.941a3.717,3.717,0,1,0,3.718-3.762A3.745,3.745,0,0,0,1064.044,2954.356Zm-26.471,0a3.717,3.717,0,1,0,3.717-3.762A3.744,3.744,0,0,0,1037.573,2954.356Zm35.682-.939h1.887v-5.629h-2.737a.934.934,0,0,1-.928-.94V2945a2.829,2.829,0,0,1,.769-1.943h-6.38a.918.918,0,0,1-.23-.029,2.828,2.828,0,0,1-2.574-2.83v-4.706a.934.934,0,0,1,.928-.94h6.485a3.353,3.353,0,0,0-2.578-.881h-6.625v19.749h.994a5.562,5.562,0,0,1,10.99,0Zm-26.471,0h12.631V2929.88h-25.558v23.538h1.938a5.562,5.562,0,0,1,10.99,0Zm26.55-8.419v.911h1.808v-1.85h-.879A.935.935,0,0,0,1073.335,2945Zm-8.416-4.8a.954.954,0,0,0,.948.959.879.879,0,0,1,.189.02h8.53l-2.767-4.746h-6.9Zm.093,14.161a2.77,2.77,0,0,1,2.75-2.784.94.94,0,0,1,0,1.88.9.9,0,1,0,.893.9.928.928,0,1,1,1.857,0,2.75,2.75,0,1,1-5.5,0Zm-26.472,0a2.771,2.771,0,0,1,2.75-2.784.94.94,0,0,1,0,1.88.9.9,0,1,0,.893.9.928.928,0,1,1,1.857,0,2.75,2.75,0,1,1-5.5,0Zm-1.858-20.688a.94.94,0,0,1,0-1.879h19.91a.94.94,0,0,1,0,1.879Z" transform="translate(-1032 -2928)" fill="#f16d7f"/>
</svg>
