<svg xmlns="http://www.w3.org/2000/svg" width="39.993" height="40.004" viewBox="0 0 39.993 40.004">
  <path id="Forma_11" data-name="Forma 11" d="M1052,3121.1l-3.472,2.9-2.289-3.929-4.241,1.516-.821-4.489-4.495-.045.732-4.506-4.209-1.6,2.21-3.974L1032,3104l3.412-2.974-2.21-3.973,4.21-1.6-.733-4.5,4.5-.045.822-4.489,4.24,1.515,2.289-3.929,3.472,2.9,3.472-2.9,2.289,3.929,4.241-1.515.821,4.49,4.495.045-.732,4.5,4.209,1.6-2.21,3.974L1072,3104l-3.412,2.974,2.208,3.973-4.21,1.6.733,4.5-4.5.046-.821,4.489-4.24-1.517-2.289,3.929Zm1.206-1.486,1.762,1.474,1.161-1.993.792-1.36,1.468.524,2.152.77.417-2.277.285-1.558,1.561-.016,2.282-.021-.372-2.288-.254-1.562,1.459-.555,2.134-.815-1.12-2.014-.767-1.378,1.183-1.03,1.734-1.513-1.733-1.509-1.183-1.031.767-1.379,1.12-2.015-2.134-.813-1.459-.555.255-1.562.372-2.286-2.283-.023-1.56-.017-.285-1.557-.416-2.278-2.153.769-1.468.524-.793-1.36-1.162-1.993-1.763,1.473-1.205,1.007-1.205-1.007-1.762-1.473-1.161,1.993-.793,1.36-1.468-.524-2.152-.769-.417,2.279-.285,1.557-1.56.017-2.282.022.372,2.287.254,1.562-1.459.556-2.135.813,1.12,2.014.766,1.378-1.182,1.031-1.735,1.511,1.733,1.51,1.183,1.031-.767,1.379-1.12,2.014,2.133.812,1.46.556-.255,1.562-.372,2.29,2.282.022,1.561.016.285,1.558.417,2.278,2.153-.769,1.468-.524.793,1.36,1.162,1.993,1.762-1.474L1052,3118.6Zm.118-12.547c0-2.932,1.565-4.563,3.46-4.563,2.006,0,3.306,1.566,3.3,4.338,0,3.065-1.586,4.586-3.416,4.586C1054.888,3111.426,1053.344,3109.974,1053.323,3107.065Zm1.521-.088c-.022,1.856.682,3.264,1.873,3.264,1.277,0,1.849-1.387,1.849-3.308,0-1.769-.507-3.244-1.849-3.244C1055.506,3103.688,1054.844,3105.141,1054.844,3106.977Zm-7.646,4.411,8.416-14.749h1.234l-8.417,14.749Zm-3.216-10.364c0-2.907,1.563-4.542,3.459-4.542,2.005,0,3.326,1.567,3.326,4.341,0,3.063-1.586,4.584-3.437,4.584C1045.547,3105.408,1044.005,3103.954,1043.983,3101.024Zm1.543-.066c-.045,1.855.641,3.263,1.85,3.265,1.277,0,1.85-1.387,1.85-3.309,0-1.769-.507-3.245-1.85-3.245C1046.166,3097.669,1045.526,3099.122,1045.526,3100.958Z" transform="translate(-1032.003 -3083.998)" fill="#f16d7f"/>
</svg>
