<svg xmlns="http://www.w3.org/2000/svg" width="263" height="281" viewBox="0 0 263 281">
  <g id="Hover_" data-name="Hover " transform="translate(-816 -1892)">
    <path id="Background" d="M0,0H263V281H0Z" transform="translate(816 1892)" fill="rgba(58,56,56,0.83)"/>
    <g id="Add_to_cart" data-name="Add to cart">
      <g id="Rounded_Rectangle_7" data-name="Rounded Rectangle 7" transform="translate(886 1993)" fill="rgba(255,255,255,0)" stroke="#fff" stroke-linejoin="round" stroke-width="1">
        <rect width="123" height="39" stroke="none"/>
        <rect x="0.5" y="0.5" width="122" height="38" fill="none"/>
      </g>
      <g id="Forma_1_copy" data-name="Forma 1 copy">
        <g id="Forma_1_copy-2" data-name="Forma 1 copy" fill="#fff" stroke-linejoin="round">
          <path d="M 916.919677734375 2024 L 916.8300170898438 2024 C 916.3518676757813 2024 915.9492797851563 2023.576538085938 915.9135131835938 2023.035888671875 C 915.8773803710938 2022.473754882813 916.2705688476563 2021.967407226563 916.7722778320313 2021.932250976563 C 916.7919921875 2021.930908203125 916.81201171875 2021.93017578125 916.8316650390625 2021.93017578125 C 917.3160400390625 2021.93017578125 917.7225341796875 2022.345092773438 917.7594604492188 2022.875854492188 C 917.7698364257813 2023.093017578125 917.7369995117188 2023.401611328125 917.5255126953125 2023.652221679688 L 917.51953125 2023.659301757813 L 917.5137329101563 2023.66650390625 C 917.360107421875 2023.85546875 917.1552734375 2023.970336914063 916.919677734375 2024 Z M 904.7799072265625 2024 C 904.267333984375 2024 903.850341796875 2023.537719726563 903.850341796875 2022.969604492188 C 903.850341796875 2022.401977539063 904.267333984375 2021.940185546875 904.7799072265625 2021.940185546875 C 905.29248046875 2021.940185546875 905.7095336914063 2022.401977539063 905.7095336914063 2022.969604492188 C 905.7095336914063 2023.537719726563 905.29248046875 2024 904.7799072265625 2024 Z" stroke="none"/>
          <path d="M 916.9713134765625 2025 C 916.9290161132813 2025 916.872314453125 2025 916.8300170898438 2025 C 915.8229370117188 2025 914.9859008789063 2024.1630859375 914.9157104492188 2023.101928710938 C 914.8446044921875 2021.995849609375 915.638427734375 2021.009399414063 916.7022094726563 2020.934692382813 C 916.74560546875 2020.931640625 916.788818359375 2020.93017578125 916.8317260742188 2020.93017578125 C 917.8389892578125 2020.93017578125 918.6896362304688 2021.757568359375 918.7578125 2022.817504882813 C 918.78662109375 2023.37109375 918.6300048828125 2023.893920898438 918.289794921875 2024.297119140625 C 917.9496459960938 2024.715698242188 917.4816284179688 2024.955078125 916.9713134765625 2025 Z M 904.7799072265625 2025 C 903.7142944335938 2025 902.850341796875 2024.091064453125 902.850341796875 2022.969604492188 C 902.850341796875 2021.84912109375 903.7142944335938 2020.940185546875 904.7799072265625 2020.940185546875 C 905.8455200195313 2020.940185546875 906.7095336914063 2021.84912109375 906.7095336914063 2022.969604492188 C 906.7095336914063 2024.091064453125 905.8455200195313 2025 904.7799072265625 2025 Z M 916.2621459960938 2018.69287109375 L 905.58544921875 2018.69287109375 C 905.2029418945313 2018.69287109375 904.8627319335938 2018.423706054688 904.7637329101563 2018.034912109375 L 901.2897338867188 2004.793212890625 L 898.8507080078125 2004.793212890625 C 898.3827514648438 2004.793212890625 898.000244140625 2004.390014648438 898.000244140625 2003.896850585938 C 898.000244140625 2003.403686523438 898.3827514648438 2002.99951171875 898.8507080078125 2002.99951171875 L 901.9277954101563 2002.99951171875 C 902.310302734375 2002.99951171875 902.6505126953125 2003.268676757813 902.74951171875 2003.657470703125 L 906.2235107421875 2016.899169921875 L 915.6951293945313 2016.899169921875 L 918.8433227539063 2009.277099609375 L 908.3502197265625 2009.277099609375 C 907.8822021484375 2009.277099609375 907.4996948242188 2008.873901367188 907.4996948242188 2008.380615234375 C 907.4996948242188 2007.887451171875 907.8822021484375 2007.4833984375 908.3502197265625 2007.4833984375 L 920.1473999023438 2007.4833984375 C 920.430908203125 2007.4833984375 920.7000122070313 2007.632690429688 920.8566284179688 2007.887451171875 C 921.0123291015625 2008.141235351563 921.0402221679688 2008.455322265625 920.9268188476563 2008.738891601563 L 917.0424194335938 2018.154663085938 C 916.9002075195313 2018.484008789063 916.602294921875 2018.69287109375 916.2621459960938 2018.69287109375 Z" stroke="none" fill="#fff"/>
        </g>
        <g id="Stroke_Effect" data-name="Stroke Effect" fill="none" stroke-linejoin="round">
          <path d="M916.83,2025a1.978,1.978,0,0,1-1.914-1.9,2,2,0,0,1,1.786-2.167,1.97,1.97,0,0,1,2.056,1.883,2.1,2.1,0,0,1-.468,1.48,1.893,1.893,0,0,1-1.318.7Zm-13.98-2.03a1.932,1.932,0,1,1,1.93,2.03A1.982,1.982,0,0,1,902.85,2022.97Zm2.735-4.277a.858.858,0,0,1-.822-.658l-3.474-13.242h-2.439a.9.9,0,0,1,0-1.794h3.077a.858.858,0,0,1,.822.658l3.474,13.242H915.7l3.148-7.622H908.35a.9.9,0,0,1,0-1.794h11.8a.835.835,0,0,1,.709.4.95.95,0,0,1,.07.851l-3.884,9.416a.853.853,0,0,1-.78.538Z" stroke="none"/>
          <path d="M 916.9713134765625 2025 C 916.9290161132813 2025 916.872314453125 2025 916.8300170898438 2025 C 915.8229370117188 2025 914.9859008789063 2024.1630859375 914.9157104492188 2023.101928710938 C 914.8446044921875 2021.995849609375 915.638427734375 2021.009399414063 916.7022094726563 2020.934692382813 C 916.74560546875 2020.931640625 916.788818359375 2020.93017578125 916.8317260742188 2020.93017578125 C 917.8389892578125 2020.93017578125 918.6896362304688 2021.757568359375 918.7578125 2022.817504882813 C 918.78662109375 2023.37109375 918.6300048828125 2023.893920898438 918.289794921875 2024.297119140625 C 917.9496459960938 2024.715698242188 917.4816284179688 2024.955078125 916.9713134765625 2025 Z M 904.7799072265625 2025 C 903.7142944335938 2025 902.850341796875 2024.091064453125 902.850341796875 2022.969604492188 C 902.850341796875 2021.84912109375 903.7142944335938 2020.940185546875 904.7799072265625 2020.940185546875 C 905.8455200195313 2020.940185546875 906.7095336914063 2021.84912109375 906.7095336914063 2022.969604492188 C 906.7095336914063 2024.091064453125 905.8455200195313 2025 904.7799072265625 2025 Z M 916.2621459960938 2018.69287109375 L 905.58544921875 2018.69287109375 C 905.2029418945313 2018.69287109375 904.8627319335938 2018.423706054688 904.7637329101563 2018.034912109375 L 901.2897338867188 2004.793212890625 L 898.8507080078125 2004.793212890625 C 898.3827514648438 2004.793212890625 898.000244140625 2004.390014648438 898.000244140625 2003.896850585938 C 898.000244140625 2003.403686523438 898.3827514648438 2002.99951171875 898.8507080078125 2002.99951171875 L 901.9277954101563 2002.99951171875 C 902.310302734375 2002.99951171875 902.6505126953125 2003.268676757813 902.74951171875 2003.657470703125 L 906.2235107421875 2016.899169921875 L 915.6951293945313 2016.899169921875 L 918.8433227539063 2009.277099609375 L 908.3502197265625 2009.277099609375 C 907.8822021484375 2009.277099609375 907.4996948242188 2008.873901367188 907.4996948242188 2008.380615234375 C 907.4996948242188 2007.887451171875 907.8822021484375 2007.4833984375 908.3502197265625 2007.4833984375 L 920.1473999023438 2007.4833984375 C 920.430908203125 2007.4833984375 920.7000122070313 2007.632690429688 920.8566284179688 2007.887451171875 C 921.0123291015625 2008.141235351563 921.0402221679688 2008.455322265625 920.9268188476563 2008.738891601563 L 917.0424194335938 2018.154663085938 C 916.9002075195313 2018.484008789063 916.602294921875 2018.69287109375 916.2621459960938 2018.69287109375 Z" stroke="none" fill="#fff"/>
        </g>
      </g>
      <text id="Add_to_Cart-2" data-name="Add to Cart" transform="translate(929 2018)" fill="#fff" font-size="13" font-family="SegoeUI, Segoe UI"><tspan x="0" y="0">Add to Cart</tspan></text>
    </g>
  </g>
</svg>
