<svg xmlns="http://www.w3.org/2000/svg" width="41" height="37" viewBox="0 0 41 37">
  <g id="Icon" transform="translate(-0.035 8)">
    <path id="Forma_1" data-name="Forma 1" d="M26.2,29a2.477,2.477,0,1,1,.2,0ZM6.751,26.32A2.681,2.681,0,1,1,9.432,29,2.68,2.68,0,0,1,6.751,26.32Zm3.8-5.634a1.183,1.183,0,0,1-1.144-.867L4.577,2.364H1.184A1.182,1.182,0,1,1,1.184,0H5.466A1.184,1.184,0,0,1,6.61.867l4.834,17.455h13.18L29,8.274H14.4a1.182,1.182,0,1,1,0-2.364H30.819a1.176,1.176,0,0,1,.986.532,1.194,1.194,0,0,1,.1,1.123L26.5,19.977a1.186,1.186,0,0,1-1.085.709Z" transform="translate(0.035 0)" fill="#222"/>
    <circle id="Ellipse_2" data-name="Ellipse 2" cx="9.5" cy="9.5" r="9.5" transform="translate(22.035 -8)" fill="#f16d7f"/>
  </g>
</svg>
