<svg xmlns="http://www.w3.org/2000/svg" width="570" height="43" viewBox="0 0 570 43">
  <g id="Hot_Deal" data-name="Hot Deal" transform="translate(-698.215 -355.478)">
    <text id="HOT_DEAL-2" data-name="HOT DEAL" transform="translate(698.215 355.478)" fill="#fff" font-size="18" font-family="SegoeUI, Segoe UI" letter-spacing="0.1em"><tspan x="237.737" y="19">HOT DEAL</tspan></text>
    <path id="Color_Overlay" data-name="Color Overlay" d="M938.252,359.878v4.968h-5.724v-4.968h-2.916v12.6h2.916v-5.166h5.724v5.166h2.916v-12.6Zm13.806,12.816c3.96,0,6.894-2.754,6.894-6.516s-2.934-6.516-6.894-6.516c-3.978,0-6.894,2.772-6.894,6.516S948.08,372.694,952.058,372.694Zm0-2.484A4.033,4.033,0,1,1,956,366.178,3.844,3.844,0,0,1,952.058,370.21Zm13.32,2.268h2.916V362.254h4.032v-2.376h-10.98v2.376h4.032Zm17.208,0h5.724c4.122,0,6.948-2.484,6.948-6.3s-2.826-6.3-6.948-6.3h-5.724Zm2.916-2.394v-7.812h2.664c2.5,0,4.14,1.494,4.14,3.906s-1.638,3.906-4.14,3.906Zm16.65.054v-2.916H1008v-2.268h-5.85v-2.736h6.624v-2.34h-9.522v12.6h9.756v-2.34Zm20.394,2.34h3.06l-5.634-12.6h-2.88l-5.616,12.6h2.988l1.116-2.7h5.85Zm-6.03-4.914,2-4.824,2,4.824Zm12.2,4.914h9.234V370.1h-6.318V359.878h-2.916Z" fill="#e53935"/>
  </g>
</svg>
