<svg xmlns="http://www.w3.org/2000/svg" width="471" height="44" viewBox="0 0 471 44">
  <g id="tag" transform="translate(-98 -368.528)">
    <text id="TRENDING" transform="translate(98 368.528)" fill="#fff" font-size="18" font-family="Montserrat-Bold, Montserrat" font-weight="700" letter-spacing="0.1em"><tspan x="0" y="17">TRENDING</tspan></text>
    <path id="Color_Overlay" data-name="Color Overlay" d="M102.1,385.528h2.916V375.3h4.032v-2.376H98.072V375.3H102.1Zm21.474,0-2.826-4.05a4.1,4.1,0,0,0,2.592-3.978c0-2.826-2.106-4.572-5.472-4.572h-5.454v12.6h2.916v-3.51h2.682l2.43,3.51Zm-3.186-8.028c0,1.368-.9,2.2-2.682,2.2h-2.376V375.3h2.376C119.492,375.3,120.392,376.114,120.392,377.5Zm9.954,5.688v-2.916h5.85V378h-5.85v-2.736h6.624v-2.34h-9.522v12.6H137.2v-2.34ZM150,372.928v7.65l-6.264-7.65h-2.412v12.6h2.88v-7.65l6.282,7.65h2.394v-12.6Zm7.668,12.6h5.724c4.122,0,6.948-2.484,6.948-6.3s-2.826-6.3-6.948-6.3H157.67Zm2.916-2.394v-7.812h2.664c2.5,0,4.14,1.494,4.14,3.906s-1.638,3.906-4.14,3.906Zm13.752,2.394h2.916v-12.6h-2.916Zm16.38-12.6v7.65l-6.264-7.65h-2.412v12.6h2.88v-7.65l6.282,7.65H193.6v-12.6ZM206.9,382.72a4.629,4.629,0,0,1-2.268.54,4.033,4.033,0,1,1,.036-8.064,4.264,4.264,0,0,1,3.258,1.422l1.872-1.728a6.717,6.717,0,0,0-5.274-2.178c-4.014,0-6.93,2.718-6.93,6.516s2.916,6.516,6.876,6.516a8.7,8.7,0,0,0,5.094-1.6V379.03H206.9Z" fill="#43a047"/>
  </g>
</svg>
