<svg xmlns="http://www.w3.org/2000/svg" width="400" height="44" viewBox="0 0 400 44">
  <g id="tag" transform="translate(-50 -2548.528)">
    <text id="EXCLUSIVE" transform="translate(50 2548.528)" fill="#fff" font-size="18" font-family="Montserrat-Bold, Montserrat" font-weight="700" letter-spacing="0.1em"><tspan x="0" y="17">EXCLUSIVE</tspan></text>
    <path id="Color_Overlay" data-name="Color Overlay" d="M54.392,2563.188v-2.916h5.85V2558h-5.85v-2.736h6.624v-2.34H51.494v12.6H61.25v-2.34Zm22.158,2.34-4.7-6.516,4.392-6.084h-3.15l-2.844,4.086-2.9-4.086H64.04l4.428,6.192-4.662,6.408h3.348l2.988-4.374,3.042,4.374Zm8.928.216a6.474,6.474,0,0,0,5.2-2.25l-1.872-1.728a4.015,4.015,0,0,1-3.168,1.494,4.032,4.032,0,1,1,0-8.064,4.054,4.054,0,0,1,3.168,1.476l1.872-1.728a6.5,6.5,0,0,0-5.184-2.232c-3.924,0-6.84,2.718-6.84,6.516A6.469,6.469,0,0,0,85.478,2565.744Zm8.964-.216h9.234v-2.376H97.358v-10.224H94.442Zm18.108.216c3.582,0,5.706-2.052,5.706-5.76v-7.056h-2.88v6.948c0,2.394-1.026,3.384-2.808,3.384-1.764,0-2.808-.99-2.808-3.384v-6.948h-2.916v7.056C106.844,2563.692,108.968,2565.744,112.55,2565.744Zm14.526,0c3.6,0,5.346-1.8,5.346-3.906,0-4.626-7.326-3.024-7.326-5.346,0-.792.666-1.44,2.394-1.44a7.116,7.116,0,0,1,3.492.99l.9-2.214a8.452,8.452,0,0,0-4.374-1.116c-3.582,0-5.31,1.782-5.31,3.924,0,4.68,7.326,3.06,7.326,5.418,0,.774-.7,1.35-2.43,1.35a7.412,7.412,0,0,1-4.158-1.314l-.99,2.2A8.981,8.981,0,0,0,127.076,2565.744Zm9.144-.216h2.916v-12.6H136.22Zm16.848-12.6-3.888,9-3.834-9H142.2l5.436,12.6h2.88l5.454-12.6Zm8.64,10.26v-2.916h5.85V2558h-5.85v-2.736h6.624v-2.34H158.81v12.6h9.756v-2.34Z" fill="#1e88e5"/>
  </g>
</svg>
