<svg xmlns="http://www.w3.org/2000/svg" width="471" height="44" viewBox="0 0 471 44">
  <g id="tag" transform="translate(-98 -4930.528)">
    <text id="MOBILE_APP" data-name="MOBILE APP" transform="translate(98 4930.528)" fill="#fff" font-size="18" font-family="Montserrat-Bold, Montserrat" font-weight="700" letter-spacing="0.1em"><tspan x="0" y="17">MOBILE APP</tspan></text>
    <path id="Color_Overlay" data-name="Color Overlay" d="M113.7,4947.528l-.036-12.6h-2.394l-4.644,7.83-4.716-7.83H99.494v12.6h2.736v-7.4l3.69,6.066h1.314l3.708-6.228.018,7.56Zm10.89.216c3.96,0,6.894-2.754,6.894-6.516s-2.934-6.516-6.894-6.516c-3.978,0-6.894,2.772-6.894,6.516S120.608,4947.744,124.586,4947.744Zm0-2.484a4.033,4.033,0,1,1,3.942-4.032A3.843,3.843,0,0,1,124.586,4945.26Zm20.142-4.284a3.029,3.029,0,0,0,1.674-2.772c0-1.962-1.62-3.276-4.77-3.276h-6.156v12.6h6.516c3.312,0,5.04-1.26,5.04-3.438A3.111,3.111,0,0,0,144.728,4940.976Zm-3.456-3.852c1.422,0,2.2.486,2.2,1.476s-.774,1.494-2.2,1.494h-2.9v-2.97Zm.5,8.208h-3.4v-3.114h3.4c1.512,0,2.322.5,2.322,1.566C144.1,4944.864,143.288,4945.332,141.776,4945.332Zm9.27,2.2h2.916v-12.6h-2.916Zm7.7,0h9.234v-2.376h-6.318v-10.224H158.75Zm15.57-2.34v-2.916h5.85V4940h-5.85v-2.736h6.624v-2.34h-9.522v12.6h9.756v-2.34Zm27.288,2.34h3.06l-5.634-12.6h-2.88l-5.616,12.6h2.988l1.116-2.7h5.85Zm-6.03-4.914,2-4.824,2,4.824Zm17.658-7.686h-5.454v12.6H210.7v-3.474h2.538c3.366,0,5.472-1.746,5.472-4.554C218.708,4936.674,216.6,4934.928,213.236,4934.928Zm-.162,6.75H210.7V4937.3h2.376c1.782,0,2.682.81,2.682,2.2C215.756,4940.868,214.856,4941.678,213.074,4941.678Zm14.958-6.75h-5.454v12.6h2.916v-3.474h2.538c3.366,0,5.472-1.746,5.472-4.554C233.5,4936.674,231.4,4934.928,228.032,4934.928Zm-.162,6.75h-2.376V4937.3h2.376c1.782,0,2.682.81,2.682,2.2C230.552,4940.868,229.652,4941.678,227.87,4941.678Z" fill="#6c6c6c"/>
  </g>
</svg>
