<svg xmlns="http://www.w3.org/2000/svg" width="22.996" height="22" viewBox="0 0 22.996 22">
  <g id="Forma_1_copy" data-name="Forma 1 copy" transform="translate(-898 -2003)" fill="#fff" stroke-linejoin="round">
    <path d="M 916.919677734375 2024 L 916.8300170898438 2024 C 916.3518676757812 2024 915.9492797851562 2023.576538085938 915.9135131835938 2023.035888671875 C 915.8773803710938 2022.473754882812 916.2705688476562 2021.967407226562 916.7722778320312 2021.932250976562 C 916.7919921875 2021.930908203125 916.81201171875 2021.93017578125 916.8316650390625 2021.93017578125 C 917.3160400390625 2021.93017578125 917.7225341796875 2022.345092773438 917.7594604492188 2022.875854492188 C 917.7698364257812 2023.093017578125 917.7369995117188 2023.401611328125 917.5255126953125 2023.652221679688 L 917.51953125 2023.659301757812 L 917.5137329101562 2023.66650390625 C 917.360107421875 2023.85546875 917.1552734375 2023.970336914062 916.919677734375 2024 Z M 904.7799072265625 2024 C 904.267333984375 2024 903.850341796875 2023.537719726562 903.850341796875 2022.969604492188 C 903.850341796875 2022.401977539062 904.267333984375 2021.940185546875 904.7799072265625 2021.940185546875 C 905.29248046875 2021.940185546875 905.7095336914062 2022.401977539062 905.7095336914062 2022.969604492188 C 905.7095336914062 2023.537719726562 905.29248046875 2024 904.7799072265625 2024 Z" stroke="none"/>
    <path d="M 916.9713134765625 2025 C 916.9290161132812 2025 916.872314453125 2025 916.8300170898438 2025 C 915.8229370117188 2025 914.9859008789062 2024.1630859375 914.9157104492188 2023.101928710938 C 914.8446044921875 2021.995849609375 915.638427734375 2021.009399414062 916.7022094726562 2020.934692382812 C 916.74560546875 2020.931640625 916.788818359375 2020.93017578125 916.8317260742188 2020.93017578125 C 917.8389892578125 2020.93017578125 918.6896362304688 2021.757568359375 918.7578125 2022.817504882812 C 918.78662109375 2023.37109375 918.6300048828125 2023.893920898438 918.289794921875 2024.297119140625 C 917.9496459960938 2024.715698242188 917.4816284179688 2024.955078125 916.9713134765625 2025 Z M 904.7799072265625 2025 C 903.7142944335938 2025 902.850341796875 2024.091064453125 902.850341796875 2022.969604492188 C 902.850341796875 2021.84912109375 903.7142944335938 2020.940185546875 904.7799072265625 2020.940185546875 C 905.8455200195312 2020.940185546875 906.7095336914062 2021.84912109375 906.7095336914062 2022.969604492188 C 906.7095336914062 2024.091064453125 905.8455200195312 2025 904.7799072265625 2025 Z M 916.2621459960938 2018.69287109375 L 905.58544921875 2018.69287109375 C 905.2029418945312 2018.69287109375 904.8627319335938 2018.423706054688 904.7637329101562 2018.034912109375 L 901.2897338867188 2004.793212890625 L 898.8507080078125 2004.793212890625 C 898.3827514648438 2004.793212890625 898.000244140625 2004.390014648438 898.000244140625 2003.896850585938 C 898.000244140625 2003.403686523438 898.3827514648438 2002.99951171875 898.8507080078125 2002.99951171875 L 901.9277954101562 2002.99951171875 C 902.310302734375 2002.99951171875 902.6505126953125 2003.268676757812 902.74951171875 2003.657470703125 L 906.2235107421875 2016.899169921875 L 915.6951293945312 2016.899169921875 L 918.8433227539062 2009.277099609375 L 908.3502197265625 2009.277099609375 C 907.8822021484375 2009.277099609375 907.4996948242188 2008.873901367188 907.4996948242188 2008.380615234375 C 907.4996948242188 2007.887451171875 907.8822021484375 2007.4833984375 908.3502197265625 2007.4833984375 L 920.1473999023438 2007.4833984375 C 920.430908203125 2007.4833984375 920.7000122070312 2007.632690429688 920.8566284179688 2007.887451171875 C 921.0123291015625 2008.141235351562 921.0402221679688 2008.455322265625 920.9268188476562 2008.738891601562 L 917.0424194335938 2018.154663085938 C 916.9002075195312 2018.484008789062 916.602294921875 2018.69287109375 916.2621459960938 2018.69287109375 Z" stroke="none" fill="#fff"/>
  </g>
</svg>
