<svg xmlns="http://www.w3.org/2000/svg" width="47.032" height="34.979" viewBox="0 0 47.032 34.979">
  <path id="Forma_1" data-name="Forma 1" d="M1070.374,3246.549a4.6,4.6,0,0,0-4.647,4.542,4.468,4.468,0,0,0,1.56,3.372l-5.862,2.06-8.342-9.7a4.545,4.545,0,0,0,3.1-4.265,4.648,4.648,0,0,0-9.293,0,4.552,4.552,0,0,0,3.046,4.251l-8.355,9.716-5.859-2.06a4.469,4.469,0,0,0,1.559-3.372,4.648,4.648,0,1,0-5.746,4.4v12.315a1.085,1.085,0,0,0,.05.242,1.562,1.562,0,0,0-.05.389c0,4.421,17.925,4.55,19.968,4.55s19.968-.129,19.968-4.55a1.6,1.6,0,0,0-.05-.389.908.908,0,0,0,.05-.242v-12.315a4.526,4.526,0,0,0-1.094-8.944Zm-21.225-3.992a2.387,2.387,0,1,1,2.387,2.333A2.364,2.364,0,0,1,1049.149,3242.557Zm-7.593,16.309a1.155,1.155,0,0,0,1.246-.331l8.7-10.119,8.7,10.119a1.154,1.154,0,0,0,1.245.332l7.76-2.731v9.957c-4.886-2.126-16.114-2.2-17.707-2.2s-12.823.079-17.708,2.2v-9.958Zm9.946,11.913c-8.707,0-14.253-1.013-16.562-1.865a4.637,4.637,0,0,1-1-.475c.722-.522,3.062-1.235,6.968-1.736a93.04,93.04,0,0,1,21.182,0c3.906.5,6.247,1.213,6.967,1.736a4.44,4.44,0,0,1-.995.475C1065.759,3269.765,1060.214,3270.779,1051.5,3270.779Zm-21.254-19.687a2.387,2.387,0,1,1,2.387,2.334A2.363,2.363,0,0,1,1030.249,3251.091Zm40.125,2.334a2.334,2.334,0,1,1,2.387-2.334A2.364,2.364,0,0,1,1070.374,3253.425Z" transform="translate(-1027.984 -3238.01)" fill="#f16d7f"/>
</svg>
