<svg xmlns="http://www.w3.org/2000/svg" width="179.307" height="24" viewBox="0 0 179.307 24">
  <g id="btn-ghost" transform="translate(-1088.865 -1168.156)">
    <path id="arrow" d="M1262.172,1186.031l6-6-6-6-1.43,1.406,4.594,4.593-4.594,4.594Z" fill="#212121"/>
    <g id="explore_all" data-name="explore all">
      <text id="EXPLORE_ALL-2" data-name="EXPLORE ALL" transform="translate(1169.964 1187.156)" fill="#6c6c6c" font-size="18" font-family="SegoeUI, Segoe UI" letter-spacing="0.2em"><tspan x="-70.295" y="0">EXPLORE ALL</tspan></text>
      <path id="Color_Overlay" data-name="Color Overlay" d="M1091.763,1184.816V1181.9h5.85v-2.268h-5.85V1176.9h6.624v-2.34h-9.522v12.6h9.756v-2.34Zm23.958,2.34-4.7-6.516,4.392-6.084h-3.15l-2.844,4.086-2.9-4.086h-3.312l4.428,6.192-4.662,6.408h3.348l2.988-4.374,3.042,4.374Zm10.206-12.6h-5.454v12.6h2.916v-3.474h2.538c3.366,0,5.472-1.746,5.472-4.554C1131.4,1176.3,1129.293,1174.556,1125.927,1174.556Zm-.162,6.75h-2.376v-4.374h2.376c1.782,0,2.682.81,2.682,2.2C1128.447,1180.5,1127.547,1181.306,1125.765,1181.306Zm11.3,5.85h9.234v-2.376h-6.318v-10.224h-2.916Zm20.358.216c3.96,0,6.894-2.754,6.894-6.516s-2.934-6.516-6.894-6.516c-3.978,0-6.894,2.772-6.894,6.516S1153.449,1187.372,1157.427,1187.372Zm0-2.484a4.033,4.033,0,1,1,3.942-4.032A3.844,3.844,0,0,1,1157.427,1184.888Zm23.85,2.268-2.826-4.05a4.1,4.1,0,0,0,2.592-3.978c0-2.826-2.106-4.572-5.472-4.572h-5.454v12.6h2.916v-3.51h2.682l2.43,3.51Zm-3.186-8.028c0,1.368-.9,2.2-2.682,2.2h-2.376v-4.392h2.376C1177.191,1176.932,1178.091,1177.742,1178.091,1179.128Zm11.754,5.688V1181.9h5.85v-2.268h-5.85V1176.9h6.624v-2.34h-9.522v12.6h9.756v-2.34Zm30.888,2.34h3.06l-5.634-12.6h-2.88l-5.616,12.6h2.988l1.116-2.7h5.85Zm-6.03-4.914,2-4.824,2,4.824Zm14,4.914h9.234v-2.376h-6.318v-10.224h-2.916Zm14.472,0h9.234v-2.376h-6.318v-10.224h-2.916Z" fill="#212121"/>
    </g>
  </g>
</svg>
