<svg xmlns="http://www.w3.org/2000/svg" viewBox="0 0 177.208 20">
  <defs>
    <style>
      .cls-1 {
        fill: #212121;
      }

      .cls-2 {
        fill: #6c6c6c;
        font-size: 18px;
        font-family: ArialMT, Arial;
        letter-spacing: 0.2em;
      }
    </style>
  </defs>
  <g id="btn-ghost" transform="translate(-1090.964 -935.156)">
    <path id="arrow" class="cls-1" d="M1262.172,950.031l6-6-6-6-1.43,1.406,4.594,4.594-4.594,4.594Z"/>
    <g id="explore_all" data-name="explore all">
      <text id="EXPLORE_ALL-2" data-name="EXPLORE ALL" class="cls-2" transform="translate(1169.964 951.156)"><tspan x="-78.535" y="0">EXPLORE ALL</tspan></text>
      <path id="Color_Overlay" data-name="Color Overlay" class="cls-1" d="M1092.853,951.156V938.271h9.316v1.521h-7.611v3.946h7.128v1.512h-7.128v4.386h7.91v1.521Zm14.261,0,4.983-6.715-4.395-6.17h2.03l2.338,3.3a18.8,18.8,0,0,1,1.037,1.582,16.825,16.825,0,0,1,1.02-1.468l2.593-3.419h1.854l-4.526,6.073,4.878,6.812h-2.109l-3.243-4.6q-.272-.4-.562-.861-.431.7-.615.967l-3.234,4.491Zm16.915,0V938.271h4.86a11.735,11.735,0,0,1,1.96.123,3.883,3.883,0,0,1,1.591.6,3.159,3.159,0,0,1,1.033,1.244,4.194,4.194,0,0,1-.655,4.54q-1.046,1.138-3.779,1.138h-3.3v5.238Zm1.705-6.759h3.331a3.533,3.533,0,0,0,2.347-.615,2.192,2.192,0,0,0,.694-1.731,2.329,2.329,0,0,0-.409-1.384,1.91,1.91,0,0,0-1.077-.76,7.285,7.285,0,0,0-1.591-.114h-3.3Zm13.831,6.759V938.271h1.705v11.364h6.346v1.521Zm13.162-6.275a7,7,0,0,1,1.723-5.023,5.857,5.857,0,0,1,4.447-1.815,6.17,6.17,0,0,1,3.217.853,5.568,5.568,0,0,1,2.184,2.377,7.722,7.722,0,0,1,.751,3.458,7.592,7.592,0,0,1-.791,3.507,5.4,5.4,0,0,1-2.241,2.342,6.4,6.4,0,0,1-3.129.8,6.093,6.093,0,0,1-3.252-.879,5.656,5.656,0,0,1-2.171-2.4A7.272,7.272,0,0,1,1152.728,944.881Zm1.758.026a5.162,5.162,0,0,0,1.252,3.669,4.369,4.369,0,0,0,6.311-.013,5.473,5.473,0,0,0,1.244-3.841,6.6,6.6,0,0,0-.532-2.747,4.086,4.086,0,0,0-1.556-1.819,4.218,4.218,0,0,0-2.3-.646,4.36,4.36,0,0,0-3.116,1.244Q1154.486,942,1154.486,944.907Zm16.388,6.249V938.271h5.713a7.6,7.6,0,0,1,2.619.347,2.864,2.864,0,0,1,1.433,1.226,3.658,3.658,0,0,1,.536,1.942,3.24,3.24,0,0,1-.888,2.312,4.492,4.492,0,0,1-2.742,1.2,4.422,4.422,0,0,1,1.028.642,8.86,8.86,0,0,1,1.415,1.714l2.241,3.507h-2.145l-1.705-2.681q-.747-1.16-1.23-1.775a3.869,3.869,0,0,0-.866-.861,2.559,2.559,0,0,0-.778-.343,5.122,5.122,0,0,0-.949-.062h-1.978v5.722Zm1.705-7.2h3.665a5.5,5.5,0,0,0,1.828-.242,1.945,1.945,0,0,0,1-.773,2.092,2.092,0,0,0,.343-1.156,1.92,1.92,0,0,0-.664-1.5,3.1,3.1,0,0,0-2.1-.589h-4.078Zm14.9,7.2V938.271h9.316v1.521h-7.611v3.946h7.128v1.512h-7.128v4.386h7.91v1.521Zm21.764,0,4.948-12.885h1.837l5.273,12.885h-1.942l-1.5-3.9h-5.388l-1.415,3.9Zm3.718-5.291h4.368l-1.345-3.568q-.615-1.626-.914-2.672a16.425,16.425,0,0,1-.694,2.461Zm13.233,5.291V938.271h1.705v11.364h6.346v1.521Zm13.611,0V938.271h1.705v11.364h6.346v1.521Z"/>
    </g>
  </g>
</svg>
