<svg xmlns="http://www.w3.org/2000/svg" width="471" height="44" viewBox="0 0 471 44">
  <g id="tag" transform="translate(-98 -3482.528)">
    <text id="HOT_DEAL" data-name="HOT DEAL" transform="translate(98 3482.528)" fill="#fff" font-size="18" font-family="Montserrat-Bold, Montserrat" font-weight="700" letter-spacing="0.1em"><tspan x="0" y="17">HOT DEAL</tspan></text>
    <path id="Color_Overlay" data-name="Color Overlay" d="M108.134,3486.928v4.968H102.41v-4.968H99.494v12.6h2.916v-5.166h5.724v5.166h2.916v-12.6Zm13.806,12.816c3.96,0,6.894-2.754,6.894-6.516s-2.934-6.516-6.894-6.516c-3.978,0-6.894,2.772-6.894,6.516S117.962,3499.744,121.94,3499.744Zm0-2.484a4.033,4.033,0,1,1,3.942-4.032A3.844,3.844,0,0,1,121.94,3497.26Zm13.32,2.268h2.916V3489.3h4.032v-2.376h-10.98v2.376h4.032Zm17.208,0h5.724c4.122,0,6.948-2.484,6.948-6.3s-2.826-6.3-6.948-6.3h-5.724Zm2.916-2.394v-7.812h2.664c2.5,0,4.14,1.494,4.14,3.906s-1.638,3.906-4.14,3.906Zm16.65.054v-2.916h5.85V3492h-5.85v-2.736h6.624v-2.34h-9.522v12.6h9.756v-2.34Zm20.394,2.34h3.06l-5.634-12.6h-2.88l-5.616,12.6h2.988l1.116-2.7h5.85Zm-6.03-4.914,2-4.824,2,4.824Zm12.2,4.914h9.234v-2.376h-6.318v-10.224H198.6Z" fill="#e53935"/>
  </g>
</svg>
